<?xml version="1.0" standalone="no"?><!DOCTYPE svg PUBLIC "-//W3C//DTD SVG 1.1//EN" "http://www.w3.org/Graphics/SVG/1.1/DTD/svg11.dtd"><svg t="1721026745405" class="icon" viewBox="0 0 1057 1024" version="1.1" xmlns="http://www.w3.org/2000/svg" p-id="51424" xmlns:xlink="http://www.w3.org/1999/xlink" width="206.4453125" height="200"><path d="M472.401549 502.593536H288.924813a10.209357 10.209357 0 0 1-10.209358-10.209358V197.625447a10.209357 10.209357 0 0 1 10.209358-10.209357h183.476736a10.209357 10.209357 0 0 1 10.209357 10.209357v294.758731a10.209357 10.209357 0 0 1-10.209357 10.209358zM288.924813 194.708488a2.916959 2.916959 0 0 0-2.916959 2.916959v294.758731a2.916959 2.916959 0 0 0 2.916959 2.91696h183.476736a2.916959 2.916959 0 0 0 2.916959-2.91696V197.625447a2.916959 2.916959 0 0 0-2.916959-2.916959z" p-id="51425"></path><path d="M282.361655 191.062289m6.563158 0l99.176614 0q6.563158 0 6.563158 6.563158l0 294.758731q0 6.563158-6.563158 6.563159l-99.176614 0q-6.563158 0-6.563158-6.563159l0-294.758731q0-6.563158 6.563158-6.563158Z" p-id="51426"></path><path d="M440.606693 300.302412a20.710411 20.710411 0 0 1-20.71041-20.71041v-38.503862a20.710411 20.710411 0 1 1 41.420821 0v38.503862a20.564563 20.564563 0 0 1-20.710411 20.71041z m0-75.549244a16.334972 16.334972 0 0 0-16.334971 16.334972v38.503862a16.334972 16.334972 0 1 0 32.669943 0v-38.503862a16.334972 16.334972 0 0 0-16.334972-16.334972zM440.606693 469.777744a20.856259 20.856259 0 0 1-20.71041-20.71041v-38.64971a20.710411 20.710411 0 1 1 41.420821 0v38.64971a20.710411 20.710411 0 0 1-20.710411 20.71041z m0-75.695092a16.334972 16.334972 0 0 0-16.334971 16.334972v38.64971a16.334972 16.334972 0 0 0 32.669943 0v-38.64971A16.334972 16.334972 0 0 0 440.606693 393.790956zM193.686094 502.593536H10.209357a10.209357 10.209357 0 0 1-10.209357-10.209358V197.625447a10.209357 10.209357 0 0 1 10.209357-10.209357h183.476737a10.209357 10.209357 0 0 1 10.209357 10.209357v294.758731a10.209357 10.209357 0 0 1-10.209357 10.209358zM10.209357 194.708488a2.916959 2.916959 0 0 0-2.916959 2.916959v294.758731a2.916959 2.916959 0 0 0 2.916959 2.91696h183.476737a2.916959 2.916959 0 0 0 2.916959-2.91696V197.625447a2.916959 2.916959 0 0 0-2.916959-2.916959z" p-id="51427"></path><path d="M200.249252 498.947337m-6.563158 0l-99.176615 0q-6.563158 0-6.563158-6.563159l0-294.758731q0-6.563158 6.563158-6.563158l99.176615 0q6.563158 0 6.563158 6.563158l0 294.758731q0 6.563158-6.563158 6.563159Z" p-id="51428"></path><path d="M42.004213 469.777744a20.856259 20.856259 0 0 1-20.710411-20.71041v-38.64971a20.710411 20.710411 0 0 1 41.420822 0v38.64971a20.856259 20.856259 0 0 1-20.710411 20.71041z m0-75.695092a16.334972 16.334972 0 0 0-16.334972 16.334972v38.64971a16.334972 16.334972 0 0 0 32.669944 0v-38.64971A16.334972 16.334972 0 0 0 42.004213 393.790956zM42.004213 300.302412a20.710411 20.710411 0 0 1-20.710411-20.71041v-38.503862a20.710411 20.710411 0 1 1 41.420822 0v38.503862a20.710411 20.710411 0 0 1-20.710411 20.71041z m0-75.549244a16.334972 16.334972 0 0 0-16.334972 16.334972v38.503862a16.334972 16.334972 0 0 0 32.669944 0v-38.503862a16.334972 16.334972 0 0 0-16.334972-16.334972z" p-id="51429"></path><path d="M771.098175 124.40977a16.189124 16.189124 0 0 0-4.229591-4.083743 11.813685 11.813685 0 0 0-5.68807-1.750175h-16.626668a11.959533 11.959533 0 0 0-6.125614 1.604327 16.626668 16.626668 0 0 0-4.521287 3.937895 19.689475 19.689475 0 0 0-2.771111 5.542223 17.21006 17.21006 0 0 0-1.020936 5.979766 18.522691 18.522691 0 0 0 3.646199 11.230293 15.459884 15.459884 0 0 0 4.229591 3.937895 11.521989 11.521989 0 0 0 5.68807 1.896024h16.772516a11.813685 11.813685 0 0 0 5.979767-1.604328 13.418013 13.418013 0 0 0 4.521286-4.083743 17.501755 17.501755 0 0 0 2.91696-5.396374 22.023042 22.023042 0 0 0 0.875087-5.979767 20.272867 20.272867 0 0 0-0.875087-5.833918 14.584796 14.584796 0 0 0-2.771112-5.396375z m-3.937895 14.584796a5.833918 5.833918 0 0 1-1.312631 3.062808 6.709006 6.709006 0 0 1-2.625264 2.333567 8.167486 8.167486 0 0 1-4.812982 1.45848h-12.688773a7.438246 7.438246 0 0 1-4.375439-1.020936 7.14655 7.14655 0 0 1-2.771111-2.333568 9.771813 9.771813 0 0 1-1.312632-3.062807 26.690177 26.690177 0 0 1 0-3.062807 21.731346 21.731346 0 0 1 0-3.062807 9.771813 9.771813 0 0 1 1.312632-3.062807 9.188422 9.188422 0 0 1 2.771111-2.479416 8.896726 8.896726 0 0 1 4.375439-0.875088H758.409403a9.771813 9.771813 0 0 1 4.375438 0.875088 8.60503 8.60503 0 0 1 2.625264 2.479416 5.833918 5.833918 0 0 1 1.312631 3.062807 11.084445 11.084445 0 0 1 0 3.062807 12.834621 12.834621 0 0 1 0.437544 2.333567zM810.914669 145.849421h-20.564563a2.916959 2.916959 0 0 1-2.041871-0.875088 2.625263 2.625263 0 0 1-0.72924-2.771112V122.367899a3.646199 3.646199 0 0 0-6.41731-2.625264 3.500351 3.500351 0 0 0-1.020936 2.625264v19.835322a9.33427 9.33427 0 0 0 0.875088 4.083743 10.209357 10.209357 0 0 0 2.187719 3.354504 14.584796 14.584796 0 0 0 3.500351 2.187719 9.771813 9.771813 0 0 0 4.083743 0.875088h20.127019a3.792047 3.792047 0 0 0 0-7.584094zM824.332681 118.575852a3.646199 3.646199 0 0 0-2.625263 1.166783 3.500351 3.500351 0 0 0-1.020936 2.625264v26.544329a3.500351 3.500351 0 0 0 1.020936 2.625263 3.792047 3.792047 0 0 0 6.41731-2.625263V122.367899a3.937895 3.937895 0 0 0-3.792047-3.792047zM845.91818 129.660297l10.792749 6.563158a3.500351 3.500351 0 0 0 5.250527-2.916959 4.667135 4.667135 0 0 0-1.45848-3.937895l-15.605732-9.625966-1.896023-0.875087h-2.18772a7.438246 7.438246 0 0 0-7.584094 7.584094v22.752282a3.792047 3.792047 0 0 0 7.584094 0V133.452344a30.190528 30.190528 0 0 1 0-4.229591c0-1.020936 0.72924-1.45848 1.45848-1.45848h1.604327z" p-id="51430"></path><path d="M869.253854 118.575852a3.937895 3.937895 0 0 0-3.792047 3.792047v14.584796a18.085147 18.085147 0 0 1 0 4.375439c0 1.020936 0 1.45848-1.45848 1.458479a3.062807 3.062807 0 0 1-1.604327 0l-2.479416-1.312631-10.792749-6.563159a3.500351 3.500351 0 0 0-5.250527 2.91696 4.812983 4.812983 0 0 0 2.18772 3.937895l15.75158 9.625965h1.896023a4.667135 4.667135 0 0 0 2.041872 0 7.292398 7.292398 0 0 0 5.396374-2.187719 7.438246 7.438246 0 0 0 2.18772-5.396375V122.367899a3.937895 3.937895 0 0 0-3.792047-3.792047zM910.674675 145.849421l-3.937895-2.91696-3.646199-2.625263-3.937895-2.187719-4.229591-2.18772 4.229591-2.187719 3.937895-2.479416 3.646199-2.479415 3.937895-2.916959 1.45848-1.45848a3.062807 3.062807 0 0 0 0.729239-1.896023 3.937895 3.937895 0 0 0-3.792047-3.792047 4.229591 4.229591 0 0 0-2.625263 1.166783l-6.563158 4.375439a56.005617 56.005617 0 0 1-7.14655 3.937895 37.045382 37.045382 0 0 1-6.709007 2.479415v-8.313333a3.937895 3.937895 0 0 0-3.792047-3.792047 3.354503 3.354503 0 0 0-2.479415 1.166783 3.646199 3.646199 0 0 0-1.166784 2.625264v26.544329a3.937895 3.937895 0 0 0 3.792047 3.792047 3.354503 3.354503 0 0 0 2.479416-1.166784 3.646199 3.646199 0 0 0 1.166783-2.625263v-8.313334a52.651114 52.651114 0 0 1 6.709007 2.479415 54.255442 54.255442 0 0 1 7.000702 3.937895l6.709006 4.521287a4.229591 4.229591 0 0 0 2.625263 1.166784 3.937895 3.937895 0 0 0 3.792047-3.792047 2.771111 2.771111 0 0 0-0.729239-1.896024zM727.781331 119.013396a3.354503 3.354503 0 0 0-4.229591 0.875087 21.147954 21.147954 0 0 1-14.584796 9.625966 21.002107 21.002107 0 0 1-14.584797-9.625966 3.354503 3.354503 0 0 0-4.229591-0.875087 3.792047 3.792047 0 0 0-1.020935 5.250526 30.190528 30.190528 0 0 0 15.75158 11.813685v12.980469a3.500351 3.500351 0 0 0 3.792047 3.792047 3.500351 3.500351 0 0 0 2.625263-1.020936 3.646199 3.646199 0 0 0 1.020936-2.771111v-12.980469A29.169592 29.169592 0 0 0 729.23981 124.263922a3.792047 3.792047 0 0 0-1.458479-5.250526z" p-id="51431"></path><path d="M740.907647 796.623027a19.251931 19.251931 0 0 1-5.396374-3.354503 3.646199 3.646199 0 0 1-1.312632-3.062807 4.083743 4.083743 0 0 1 1.896023-3.646199 10.209357 10.209357 0 0 1 4.812983-1.166784 13.272165 13.272165 0 0 1 6.854854 1.604328v-3.500351a15.459884 15.459884 0 0 0-6.563158-1.020936 12.688773 12.688773 0 0 0-7.729942 2.041871 7.729942 7.729942 0 0 0-2.916959 5.979767 7.14655 7.14655 0 0 0 1.45848 4.521287 16.189124 16.189124 0 0 0 5.833918 3.937895l3.937895 2.041871a5.688071 5.688071 0 0 1 2.041871 2.187719 3.062807 3.062807 0 0 1 0.875088 2.479416c0 3.208655-2.333567 4.958831-6.854854 4.958831a14.584796 14.584796 0 0 1-4.667135-1.020936 14.584796 14.584796 0 0 1-3.354503-1.604328v3.792047a8.60503 8.60503 0 0 0 3.354503 1.166784H737.407296a12.105381 12.105381 0 0 0 7.87579-2.18772 7.000702 7.000702 0 0 0 2.916959-5.979766 6.41731 6.41731 0 0 0-1.896023-4.812983 15.605732 15.605732 0 0 0-5.396375-3.354503zM759.138642 809.457648v-9.042574a1.020936 1.020936 0 0 1 1.020936-1.020936h10.06351v-2.916959h-10.06351a1.166784 1.166784 0 0 1-1.020936-1.020936V787.580454a1.020936 1.020936 0 0 1 1.020936-1.020936h10.938597v-3.062807h-15.459884v30.482224h16.189124v-2.91696h-11.667837a1.166784 1.166784 0 0 1-1.020936-1.604327zM784.078644 787.580454v26.398481H787.578995V787.580454a1.020936 1.020936 0 0 1 1.020936-1.020936h7.87579v-3.062807h-21.293803v3.062807h7.87579a1.020936 1.020936 0 0 1 1.020936 1.020936z" p-id="51432"></path><path d="M961.13807 900.758472h-320.865517a29.898832 29.898832 0 0 1-29.898832-30.04468V30.046139A29.898832 29.898832 0 0 1 640.564249 0.001458h320.865517A30.04468 30.04468 0 0 1 991.766142 30.046139V870.713792a30.04468 30.04468 0 0 1-30.628072 30.04468zM640.564249 14.586255a15.314036 15.314036 0 0 0-15.314036 15.459884V870.713792a15.459884 15.459884 0 0 0 15.314036 15.459884h320.865517A15.605732 15.605732 0 0 0 977.181346 870.713792V30.046139A15.459884 15.459884 0 0 0 961.13807 14.586255z" p-id="51433"></path><path d="M878.588123 800.852618m-57.755793 0a57.755793 57.755793 0 1 0 115.511586 0 57.755793 57.755793 0 1 0-115.511586 0Z" p-id="51434"></path><path d="M599.580972 338.077035h-18.814387a7.000702 7.000702 0 0 1-6.854854-6.854855V113.325325a7.000702 7.000702 0 0 1 6.854854-6.854854h18.814387a6.854854 6.854854 0 0 1 6.854854 6.854854v217.896855a6.854854 6.854854 0 0 1-6.854854 6.854855z m0-224.75171h-18.376843v217.459311h17.939299z m0 217.459311z" p-id="51435"></path><path d="M569.536292 265.590597m3.208655 0l45.212868 0q3.208655 0 3.208655 3.208656l0 46.525499q0 3.208655-3.208655 3.208656l-45.212868 0q-3.208655 0-3.208655-3.208656l0-46.525499q0-3.208655 3.208655-3.208656Z" p-id="51436"></path><path d="M569.536292 124.118074m3.208655 0l45.212868 0q3.208655 0 3.208655 3.208655l0 46.5255q0 3.208655-3.208655 3.208655l-45.212868 0q-3.208655 0-3.208655-3.208655l0-46.5255q0-3.208655 3.208655-3.208655Z" p-id="51437"></path><path d="M569.536292 328.451069m3.208655 0l46.5255 0q3.208655 0 3.208655 3.208655l0 10.209358q0 3.208655-3.208655 3.208655l-46.5255 0q-3.208655 0-3.208655-3.208655l0-10.209358q0-3.208655 3.208655-3.208655Z" p-id="51438"></path><path d="M569.536292 98.302985m3.208655 0l46.5255 0q3.208655 0 3.208655 3.208655l0 10.209357q0 3.208655-3.208655 3.208656l-46.5255 0q-3.208655 0-3.208655-3.208656l0-10.209357q0-3.208655 3.208655-3.208655Z" p-id="51439"></path><path d="M600.310212 199.667319m3.208655 0l13.126317 0q3.208655 0 3.208655 3.208655l0 41.129125q0 3.208655-3.208655 3.208655l-13.126317 0q-3.208655 0-3.208655-3.208655l0-41.129125q0-3.208655 3.208655-3.208655Z" p-id="51440"></path><path d="M599.580972 795.602091h-18.814387a7.000702 7.000702 0 0 1-6.854854-6.854854V570.704534a7.000702 7.000702 0 0 1 6.854854-6.854854h18.814387a6.854854 6.854854 0 0 1 6.854854 6.854854v218.042703a7.000702 7.000702 0 0 1-6.854854 6.854854z m0-224.897557h-18.376843v217.605159h17.939299z m0 217.605159z" p-id="51441"></path><path d="M569.536292 722.969806m3.208655 0l45.212868 0q3.208655 0 3.208655 3.208656l0 46.525499q0 3.208655-3.208655 3.208656l-45.212868 0q-3.208655 0-3.208655-3.208656l0-46.525499q0-3.208655 3.208655-3.208656Z" p-id="51442"></path><path d="M569.536292 581.497283m3.208655 0l45.212868 0q3.208655 0 3.208655 3.208655l0 46.5255q0 3.208655-3.208655 3.208655l-45.212868 0q-3.208655 0-3.208655-3.208655l0-46.5255q0-3.208655 3.208655-3.208655Z" p-id="51443"></path><path d="M569.536292 785.830278m3.208655 0l46.5255 0q3.208655 0 3.208655 3.208655l0 10.209357q0 3.208655-3.208655 3.208656l-46.5255 0q-3.208655 0-3.208655-3.208656l0-10.209357q0-3.208655 3.208655-3.208655Z" p-id="51444"></path><path d="M569.536292 555.682194m3.208655 0l46.5255 0q3.208655 0 3.208655 3.208655l0 10.209357q0 3.208655-3.208655 3.208656l-46.5255 0q-3.208655 0-3.208655-3.208656l0-10.209357q0-3.208655 3.208655-3.208655Z" p-id="51445"></path><path d="M600.310212 657.046527m3.208655 0l13.126317 0q3.208655 0 3.208655 3.208656l0 41.129125q0 3.208655-3.208655 3.208655l-13.126317 0q-3.208655 0-3.208655-3.208655l0-41.129125q0-3.208655 3.208655-3.208656Z" p-id="51446"></path><path d="M985.640528 88.968715H1006.350938a6.41731 6.41731 0 0 1 6.41731 6.417311V145.849421a6.41731 6.41731 0 0 1-6.41731 6.41731h-20.71041V88.968715zM985.640528 291.697383H1006.350938a6.41731 6.41731 0 0 1 6.41731 6.41731v50.317547a6.41731 6.41731 0 0 1-6.41731 6.41731h-20.71041V291.697383z" p-id="51447"></path><path d="M1034.207899 291.405687m3.500351 0l11.959533 0q3.500351 0 3.500351 3.500351l0 56.151465q0 3.500351-3.500351 3.500351l-11.959533 0q-3.500351 0-3.500351-3.500351l0-56.151465q0-3.500351 3.500351-3.500351Z" p-id="51448"></path><path d="M1034.207899 88.968715m3.500351 0l11.959533 0q3.500351 0 3.500351 3.500351l0 56.151466q0 3.500351-3.500351 3.500351l-11.959533 0q-3.500351 0-3.500351-3.500351l0-56.151466q0-3.500351 3.500351-3.500351Z" p-id="51449"></path><path d="M1038.291642 96.261113v67.673455a7.292398 7.292398 0 0 0 7.292398 7.292398H1050.105327v100.780942h-4.812983a7.292398 7.292398 0 0 0-7.292398 7.292398v67.819302h-30.04468V96.261113h30.336376m4.083743-7.292398h-38.503862a3.208655 3.208655 0 0 0-3.208655 3.208655v259.025981a3.208655 3.208655 0 0 0 3.208655 3.208655h38.503862a3.208655 3.208655 0 0 0 3.208655-3.208655v-71.903045h9.480117a2.625263 2.625263 0 0 0 2.625264-2.625264v-110.115211a2.625263 2.625263 0 0 0-2.625264-2.625263h-9.480117V92.17737a3.208655 3.208655 0 0 0-3.208655-3.208655zM991.766142 546.347924h18.085147a6.41731 6.41731 0 0 1 6.417311 6.417311v50.317547a6.41731 6.41731 0 0 1-6.417311 6.41731H991.766142v-63.152168zM991.766142 748.784896h18.085147a6.41731 6.41731 0 0 1 6.417311 6.41731v50.317547a6.41731 6.41731 0 0 1-6.417311 6.41731H991.766142v-63.152167z" p-id="51450"></path><path d="M1036.103922 748.784896m3.500351 0l10.355206 0q3.500351 0 3.500351 3.500351l0 56.151465q0 3.500351-3.500351 3.500351l-10.355206 0q-3.500351 0-3.500351-3.500351l0-56.151465q0-3.500351 3.500351-3.500351Z" p-id="51451"></path><path d="M1036.103922 546.347924m3.500351 0l10.355206 0q3.500351 0 3.500351 3.500351l0 56.151466q0 3.500351-3.500351 3.500351l-10.355206 0q-3.500351 0-3.500351-3.500351l0-56.151466q0-3.500351 3.500351-3.500351Z" p-id="51452"></path><path d="M1039.312578 554.223714v67.819303a7.292398 7.292398 0 0 0 7.292398 7.292398H1050.105327V729.241269h-3.792047a7.292398 7.292398 0 0 0-7.292398 7.292398v67.819302h-26.398482V554.223714h26.690178m4.375438-7.292398h-35.295206a3.062807 3.062807 0 0 0-3.062808 3.208655v258.442589a3.062807 3.062807 0 0 0 3.062808 3.208655h35.295206a3.062807 3.062807 0 0 0 2.91696-3.208655v-71.903045h8.750877a2.479415 2.479415 0 0 0 2.333568-2.479416v-110.261059a2.479415 2.479415 0 0 0-2.333568-2.479415h-8.750877v-71.903046a3.062807 3.062807 0 0 0-2.91696-3.208655zM381.829965 1024H233.648435c-99.905854 0-165.537437-18.376843-195.144573-54.40129a66.506671 66.506671 0 0 1-14.584796-55.859769 67.819302 67.819302 0 0 1 31.065616-43.754389c24.064914-14.584796 58.339185-18.085147 102.093573-9.334269a551.451144 551.451144 0 0 0 253.483758-10.501054 116.67837 116.67837 0 0 0 77.29942-80.362227 45.650412 45.650412 0 0 0-10.938597-45.650412c-25.960937-23.773218-60.526904-3.354503-114.053106 33.107487-58.339185 39.962342-186.539543 67.673454-263.40142 43.754389-47.25474-14.584796-57.609945-44.775324-59.505968-61.256144A89.842345 89.842345 0 0 1 87.508777 654.567112c37.19123-22.314738 75.549244-8.167486 116.67837 6.709006a327.428675 327.428675 0 0 0 72.048893 20.418715 40.545733 40.545733 0 0 0 36.170295-10.792749c28.294505-29.169592 26.106785-110.115211 15.75158-169.912876l14.584796-2.625263c3.937895 22.89813 21.877194 139.284804-19.543627 182.601648a54.40129 54.40129 0 0 1-49.004915 15.897428 335.450313 335.450313 0 0 1-75.403397-21.147954c-38.795558-14.584796-72.923981-26.690177-103.697901-7.87579a75.403396 75.403396 0 0 0-40.108189 68.840238c2.771111 22.314738 20.272867 39.816494 49.442459 49.004915 72.923981 23.043978 194.852877-3.354503 250.858495-41.420821 49.150763-33.545031 95.676263-65.194039 132.138253-31.940704a59.797664 59.797664 0 0 1 15.314036 59.651817 131.263166 131.263166 0 0 1-87.508777 91.009128 567.786116 567.786116 0 0 1-260.776156 11.084445c-40.254038-8.167486-71.319653-5.688071-92.175912 7.292398a53.234506 53.234506 0 0 0-24.502458 34.420119 52.651114 52.651114 0 0 0 11.959533 43.754389c18.376843 21.731346 65.194039 48.421523 183.622584 48.421523h79.341292c170.787964 2.625263 306.28072 4.667135 343.763646-112.448779l13.855557 4.521287c-35.149359 110.406907-148.910769 123.970768-288.487269 123.970768z" p-id="51453"></path></svg>