<?xml version="1.0" standalone="no"?><!DOCTYPE svg PUBLIC "-//W3C//DTD SVG 1.1//EN" "http://www.w3.org/Graphics/SVG/1.1/DTD/svg11.dtd"><svg t="1721026725718" class="icon" viewBox="0 0 1024 1024" version="1.1" xmlns="http://www.w3.org/2000/svg" p-id="51262" xmlns:xlink="http://www.w3.org/1999/xlink" width="200" height="200"><path d="M512 51.2H204.8a51.2 51.2 0 0 0-51.2 51.2v819.2a51.2 51.2 0 0 0 51.2 51.2h307.2a51.2 51.2 0 0 0 51.2-51.2V102.4a51.2 51.2 0 0 0-51.2-51.2z" fill="#FFFFFF" p-id="51263"></path><path d="M819.2 640H358.4a51.2 51.2 0 1 0 0 102.4h460.8a51.2 51.2 0 1 0 0-102.4z" fill="#FFFFFF" p-id="51264"></path><path d="M230.4 267.6736h51.2a11.6736 11.6736 0 0 0 0-23.3472h-51.2a11.6736 11.6736 0 0 0 0 23.3472zM332.8 267.6736h51.2a11.6736 11.6736 0 0 0 0-23.3472h-51.2a11.6736 11.6736 0 0 0 0 23.3472zM435.2 267.6736h51.2a11.6736 11.6736 0 0 0 0-23.3472h-51.2a11.6736 11.6736 0 0 0 0 23.3472zM230.4 335.872h51.2a11.656533 11.656533 0 1 0 0-23.1424h-51.2a11.6736 11.6736 0 1 0 0 23.1424zM332.8 335.872h51.2a11.656533 11.656533 0 1 0 0-23.1424h-51.2a11.6736 11.6736 0 1 0 0 23.1424zM435.2 335.872h51.2a11.656533 11.656533 0 1 0 0-23.1424h-51.2a11.6736 11.6736 0 1 0 0 23.1424zM230.4 404.0704h51.2a11.656533 11.656533 0 1 0 0-23.1424h-51.2a11.6736 11.6736 0 1 0 0 23.1424zM332.8 404.0704h51.2a11.656533 11.656533 0 1 0 0-23.1424h-51.2a11.6736 11.6736 0 1 0 0 23.1424zM435.2 404.0704h51.2a11.656533 11.656533 0 1 0 0-23.1424h-51.2a11.6736 11.6736 0 1 0 0 23.1424zM230.4 472.4736h51.2a11.6736 11.6736 0 0 0 0-23.3472h-51.2a11.6736 11.6736 0 0 0 0 23.3472zM332.8 472.4736h51.2a11.6736 11.6736 0 0 0 0-23.3472h-51.2a11.6736 11.6736 0 0 0 0 23.3472zM435.2 472.4736h51.2a11.6736 11.6736 0 0 0 0-23.3472h-51.2a11.6736 11.6736 0 0 0 0 23.3472z" fill="#2FD9B8" p-id="51265"></path><path d="M819.2 628.3264H574.8736V102.4A63.0784 63.0784 0 0 0 512 39.5264H204.8A63.0784 63.0784 0 0 0 141.9264 102.4v819.2A63.0784 63.0784 0 0 0 204.8 984.4736h307.2A63.0784 63.0784 0 0 0 574.8736 921.6v-167.5264H819.2a62.8736 62.8736 0 1 0 0-125.7472zM551.5264 921.6A39.3216 39.3216 0 0 1 512 961.1264H204.8A39.287467 39.287467 0 0 1 165.2736 921.6V102.4A39.3216 39.3216 0 0 1 204.8 62.8736h307.2A39.3216 39.3216 0 0 1 551.5264 102.4v525.9264h-68.608a139.656533 139.656533 0 1 0 0 125.7472h68.608V921.6zM358.4 754.0736h97.6896a116.309333 116.309333 0 1 1 0-125.7472H358.4a62.8736 62.8736 0 1 0 0 125.7472z m460.8-23.3472H358.4a39.5264 39.5264 0 0 1 0-79.0528h460.8a39.5264 39.5264 0 1 1 0 79.0528z" fill="#767680" p-id="51266"></path><path d="M371.0976 709.0176a11.264 11.264 0 0 1-6.5536-1.8432 11.4688 11.4688 0 0 1-4.9152-9.216h-1.024a13.312 13.312 0 0 0 6.144 11.264c2.389333 1.518933 5.154133 2.286933 7.9872 2.2528h3.072a1.6384 1.6384 0 0 0 1.024-1.6384 1.6384 1.6384 0 0 0-1.4336 0l-4.3008-0.8192z" fill="#2FD9B8" p-id="51267"></path><path d="M346.5216 697.9584a11.8784 11.8784 0 1 1 23.7568 0v1.024h1.8432v-1.024a14.5408 14.5408 0 0 0-29.0816 0c0 3.925333 0.9216 7.765333 2.6624 11.264 1.3824 2.474667 3.191467 4.693333 5.3248 6.5536a1.2288 1.2288 0 0 0 1.024 0 1.2288 1.2288 0 0 0 0-1.6384 22.698667 22.698667 0 0 1-4.9152-6.3488 20.462933 20.462933 0 0 1-0.6144-9.8304z" fill="#2FD9B8" p-id="51268"></path><path d="M358.4 677.888a20.497067 20.497067 0 0 0-19.2512 11.8784c-1.262933 2.56-1.877333 5.358933-1.8432 8.192 0.017067 3.498667 0.648533 6.9632 1.8432 10.24a1.2288 1.2288 0 0 0 1.6384 0s1.024 0 0-1.6384a22.698667 22.698667 0 0 1-1.6384-9.216 15.957333 15.957333 0 0 1 1.4336-7.168 18.619733 18.619733 0 0 1 16.9984-10.24 17.8176 17.8176 0 0 1 18.432 17.408 5.12 5.12 0 0 1-5.3248 5.12 5.3248 5.3248 0 0 1-5.3248-5.12 7.9872 7.9872 0 0 0-15.7696 0 18.6368 18.6368 0 0 0 5.5296 13.312c2.645333 2.696533 5.973333 4.608 9.6256 5.5296a1.2288 1.2288 0 0 0 1.2288 0v-1.4336a17.408 17.408 0 0 1-8.3968-4.9152 15.7696 15.7696 0 0 1-4.7104-11.4688 5.12 5.12 0 0 1 5.3248-4.9152 5.12 5.12 0 0 1 5.3248 4.9152 7.7824 7.7824 0 0 0 7.7824 7.5776 7.9872 7.9872 0 0 0 7.9872-7.5776A20.48 20.48 0 0 0 358.4 677.888zM344.2688 671.744c4.3008-2.4576 9.181867-3.720533 14.1312-3.6864 5.0176 0.034133 9.9328 1.297067 14.336 3.6864a1.024 1.024 0 0 0 1.024 0 1.024 1.024 0 0 0 0.3072-1.28 1.024 1.024 0 0 0-0.3072-0.3584 32.989867 32.989867 0 0 0-15.5648-3.8912 30.5152 30.5152 0 0 0-15.36 3.8912 1.4336 1.4336 0 0 0 0 1.8432 1.4336 1.4336 0 0 0 1.4336-0.2048z" fill="#2FD9B8" p-id="51269"></path><path d="M371.5072 675.84a28.2624 28.2624 0 0 0-26.2144 0c-3.925333 1.877333-7.236267 4.778667-9.6256 8.3968a1.2288 1.2288 0 0 0 0 1.6384 23.552 23.552 0 0 1 8.6016-7.5776 26.4192 26.4192 0 0 1 24.1664 0c3.4816 1.706667 6.4512 4.334933 8.6016 7.5776a1.4336 1.4336 0 0 0 1.8432 0 1.2288 1.2288 0 0 0 0-1.8432 24.7808 24.7808 0 0 0-7.3728-8.192z" fill="#2FD9B8" p-id="51270"></path></svg>